<?xml version="1.0" encoding="UTF-8"?>
<svg xmlns="http://www.w3.org/2000/svg" width="58" height="69" viewBox="0 0 58 69" fill="none">
  <g clip-path="url(#clip0_1050_2013)">
    <path d="M29.5277 1.05386L58 17.7474V51.7427C48.3333 57.4047 38.6667 63.0722 29 68.7451C19.3333 63.0722 9.66667 57.4047 0 51.7427V17.7474L29 0.745117L29.5277 1.05499V1.05386ZM30.0637 3.85465V32.7765C30.5184 31.0532 31.0482 29.3786 31.6529 27.7528C33.9609 21.4826 37.5614 15.7685 42.2205 10.9815L30.0626 3.85352L30.0637 3.85465ZM30.0637 49.6883V49.78C31.1366 45.6538 32.726 41.6797 34.7942 37.9521C39.1952 30.0743 45.7817 23.5522 54.7787 18.3452L44.1253 12.0993C39.4881 16.7499 35.9117 22.3497 33.6423 28.5143C31.2287 35.3109 30.0181 42.4767 30.0648 49.6895L30.0637 49.6883ZM27.934 32.7753V3.85465L15.7771 10.9827C20.4357 15.77 24.0363 21.484 26.3448 27.754C26.9496 29.379 27.4793 31.0532 27.934 32.7765V32.7753ZM55.8703 20.1931C47.1947 25.204 40.8576 31.4672 36.6398 39.0154C33.1917 45.3765 31.0871 52.379 30.4569 59.5881C32.3192 55.133 34.8824 51.0051 38.0492 47.3611C43.1231 41.7293 49.1574 37.0451 55.8703 33.5274V20.1931ZM55.8703 35.9882C49.7712 39.2932 44.2833 43.6199 39.6453 48.7805C35.5022 53.5595 32.4487 59.184 30.6971 65.2629L55.869 50.5031V35.9859L55.8703 35.9882ZM2.12855 33.5205C8.84297 37.0379 14.8786 41.7225 19.9532 47.3553C23.1161 50.9957 25.6768 55.1188 27.5384 59.5684C26.9067 52.3665 24.803 45.3712 21.3579 39.0165C17.1413 31.4718 10.8019 25.2039 2.12855 20.1942V33.5205ZM27.3076 65.2699C25.5558 59.1868 22.5011 53.5584 18.3558 48.776C13.7169 43.6144 8.2279 39.2867 2.12742 35.9812V50.5077L27.3076 65.2699ZM3.21903 18.3463C12.216 23.5522 18.8025 30.0697 23.2035 37.9534C25.2692 41.6777 26.8573 45.6477 27.9305 49.7695C27.9859 42.531 26.7764 35.3385 24.3566 28.5167C22.0868 22.352 18.5101 16.752 13.8724 12.1016L3.21903 18.3474V18.3463Z" fill="white"></path>
  </g>
  <defs>
    <clipPath id="clip0_1050_2013">
      <rect width="58" height="68" fill="white" transform="translate(0 0.745117)"></rect>
    </clipPath>
  </defs>
</svg>
